<mxfile host="app.diagrams.net" modified="2024-03-14T20:31:29.392Z" agent="Mozilla/5.0 (Windows NT 10.0; Win64; x64) AppleWebKit/537.36 (KHTML, like Gecko) Chrome/122.0.0.0 Safari/537.36" etag="VA70vy0zmBLH2Yw5e57T" version="24.0.5" type="device">
  <diagram name="PÃ¡gina-1" id="RcHztJnTsFm7IybqV_Ui">
    <mxGraphModel dx="1500" dy="1915" grid="1" gridSize="10" guides="1" tooltips="1" connect="1" arrows="1" fold="1" page="1" pageScale="1" pageWidth="827" pageHeight="1169" math="0" shadow="0">
      <root>
        <mxCell id="0" />
        <mxCell id="1" parent="0" />
        <mxCell id="yGpnjCPyToKT_gnSNX1e-29" value="&lt;font style=&quot;font-size: 20px;&quot;&gt;Producto&lt;/font&gt;" style="whiteSpace=wrap;html=1;" vertex="1" parent="1">
          <mxGeometry x="870" y="130" width="120" height="60" as="geometry" />
        </mxCell>
        <mxCell id="yGpnjCPyToKT_gnSNX1e-31" value="&lt;font style=&quot;font-size: 18px;&quot;&gt;Categoria&lt;/font&gt;" style="ellipse;whiteSpace=wrap;html=1;" vertex="1" parent="1">
          <mxGeometry x="1140" y="100" width="120" height="80" as="geometry" />
        </mxCell>
        <mxCell id="yGpnjCPyToKT_gnSNX1e-32" value="&lt;font style=&quot;font-size: 20px;&quot;&gt;Proveedor&lt;/font&gt;" style="rounded=0;whiteSpace=wrap;html=1;" vertex="1" parent="1">
          <mxGeometry x="354" y="130" width="120" height="60" as="geometry" />
        </mxCell>
        <mxCell id="yGpnjCPyToKT_gnSNX1e-33" value="" style="endArrow=none;html=1;rounded=0;entryX=0;entryY=0;entryDx=0;entryDy=0;" edge="1" parent="1" target="yGpnjCPyToKT_gnSNX1e-32">
          <mxGeometry width="50" height="50" relative="1" as="geometry">
            <mxPoint x="240" y="60" as="sourcePoint" />
            <mxPoint x="340" y="40" as="targetPoint" />
          </mxGeometry>
        </mxCell>
        <mxCell id="yGpnjCPyToKT_gnSNX1e-35" value="" style="endArrow=none;html=1;rounded=0;" edge="1" parent="1">
          <mxGeometry width="50" height="50" relative="1" as="geometry">
            <mxPoint x="240" y="260" as="sourcePoint" />
            <mxPoint x="354" y="190" as="targetPoint" />
          </mxGeometry>
        </mxCell>
        <mxCell id="yGpnjCPyToKT_gnSNX1e-36" value="&lt;font style=&quot;font-size: 18px;&quot;&gt;Producto&lt;/font&gt;" style="ellipse;whiteSpace=wrap;html=1;" vertex="1" parent="1">
          <mxGeometry x="120" y="20" width="120" height="80" as="geometry" />
        </mxCell>
        <mxCell id="yGpnjCPyToKT_gnSNX1e-37" value="&lt;font style=&quot;font-size: 18px;&quot;&gt;Empresa&lt;/font&gt;" style="ellipse;whiteSpace=wrap;html=1;" vertex="1" parent="1">
          <mxGeometry x="120" y="120" width="120" height="80" as="geometry" />
        </mxCell>
        <mxCell id="yGpnjCPyToKT_gnSNX1e-38" value="&lt;font style=&quot;font-size: 18px;&quot;&gt;Sector&lt;/font&gt;" style="ellipse;whiteSpace=wrap;html=1;" vertex="1" parent="1">
          <mxGeometry x="120" y="220" width="120" height="80" as="geometry" />
        </mxCell>
        <mxCell id="yGpnjCPyToKT_gnSNX1e-40" value="" style="endArrow=none;html=1;rounded=0;entryX=0;entryY=0.5;entryDx=0;entryDy=0;exitX=1;exitY=0.5;exitDx=0;exitDy=0;" edge="1" parent="1" source="yGpnjCPyToKT_gnSNX1e-37" target="yGpnjCPyToKT_gnSNX1e-32">
          <mxGeometry width="50" height="50" relative="1" as="geometry">
            <mxPoint x="260" y="185" as="sourcePoint" />
            <mxPoint x="310" y="135" as="targetPoint" />
          </mxGeometry>
        </mxCell>
        <mxCell id="yGpnjCPyToKT_gnSNX1e-41" value="&lt;font style=&quot;font-size: 18px;&quot;&gt;Precio&lt;/font&gt;" style="ellipse;whiteSpace=wrap;html=1;" vertex="1" parent="1">
          <mxGeometry x="1080" y="240" width="120" height="80" as="geometry" />
        </mxCell>
        <mxCell id="yGpnjCPyToKT_gnSNX1e-43" value="&lt;font style=&quot;font-size: 18px;&quot;&gt;Enviar&lt;/font&gt;" style="rhombus;whiteSpace=wrap;html=1;rounded=0;" vertex="1" parent="1">
          <mxGeometry x="615" y="115" width="90" height="90" as="geometry" />
        </mxCell>
        <mxCell id="yGpnjCPyToKT_gnSNX1e-45" value="" style="endArrow=none;html=1;rounded=0;entryX=0;entryY=0.5;entryDx=0;entryDy=0;exitX=1;exitY=0.5;exitDx=0;exitDy=0;" edge="1" parent="1" source="yGpnjCPyToKT_gnSNX1e-43" target="yGpnjCPyToKT_gnSNX1e-29">
          <mxGeometry width="50" height="50" relative="1" as="geometry">
            <mxPoint x="685" y="180" as="sourcePoint" />
            <mxPoint x="735" y="130" as="targetPoint" />
          </mxGeometry>
        </mxCell>
        <mxCell id="yGpnjCPyToKT_gnSNX1e-46" value="" style="endArrow=none;html=1;rounded=0;entryX=0;entryY=0.5;entryDx=0;entryDy=0;" edge="1" parent="1" source="yGpnjCPyToKT_gnSNX1e-32" target="yGpnjCPyToKT_gnSNX1e-43">
          <mxGeometry width="50" height="50" relative="1" as="geometry">
            <mxPoint x="510" y="185" as="sourcePoint" />
            <mxPoint x="570" y="160" as="targetPoint" />
          </mxGeometry>
        </mxCell>
        <mxCell id="yGpnjCPyToKT_gnSNX1e-47" value="" style="endArrow=none;html=1;rounded=0;entryX=0;entryY=0;entryDx=0;entryDy=0;exitX=1;exitY=0.5;exitDx=0;exitDy=0;" edge="1" parent="1" target="yGpnjCPyToKT_gnSNX1e-41">
          <mxGeometry width="50" height="50" relative="1" as="geometry">
            <mxPoint x="990" y="180" as="sourcePoint" />
            <mxPoint x="1116" y="265.44000000000005" as="targetPoint" />
          </mxGeometry>
        </mxCell>
        <mxCell id="yGpnjCPyToKT_gnSNX1e-48" value="" style="endArrow=none;html=1;rounded=0;exitX=1;exitY=0;exitDx=0;exitDy=0;entryX=0;entryY=0.5;entryDx=0;entryDy=0;" edge="1" parent="1" target="yGpnjCPyToKT_gnSNX1e-31">
          <mxGeometry width="50" height="50" relative="1" as="geometry">
            <mxPoint x="990" y="150" as="sourcePoint" />
            <mxPoint x="1140" y="160" as="targetPoint" />
          </mxGeometry>
        </mxCell>
        <mxCell id="yGpnjCPyToKT_gnSNX1e-50" value="&lt;font style=&quot;font-size: 18px;&quot;&gt;Compra&lt;/font&gt;" style="rhombus;whiteSpace=wrap;html=1;" vertex="1" parent="1">
          <mxGeometry x="880" y="380" width="100" height="110" as="geometry" />
        </mxCell>
        <mxCell id="yGpnjCPyToKT_gnSNX1e-52" value="&lt;font style=&quot;font-size: 20px;&quot;&gt;Cliente&lt;/font&gt;" style="whiteSpace=wrap;html=1;" vertex="1" parent="1">
          <mxGeometry x="870" y="640" width="120" height="60" as="geometry" />
        </mxCell>
        <mxCell id="yGpnjCPyToKT_gnSNX1e-54" value="" style="endArrow=none;html=1;rounded=0;exitX=0.5;exitY=0;exitDx=0;exitDy=0;entryX=0.5;entryY=1;entryDx=0;entryDy=0;" edge="1" parent="1" source="yGpnjCPyToKT_gnSNX1e-50" target="yGpnjCPyToKT_gnSNX1e-29">
          <mxGeometry width="50" height="50" relative="1" as="geometry">
            <mxPoint x="905" y="305" as="sourcePoint" />
            <mxPoint x="955" y="255" as="targetPoint" />
          </mxGeometry>
        </mxCell>
        <mxCell id="yGpnjCPyToKT_gnSNX1e-55" value="" style="endArrow=none;html=1;rounded=0;entryX=0.5;entryY=1;entryDx=0;entryDy=0;exitX=0.5;exitY=0;exitDx=0;exitDy=0;" edge="1" parent="1" source="yGpnjCPyToKT_gnSNX1e-52" target="yGpnjCPyToKT_gnSNX1e-50">
          <mxGeometry width="50" height="50" relative="1" as="geometry">
            <mxPoint x="905" y="570" as="sourcePoint" />
            <mxPoint x="955" y="520" as="targetPoint" />
          </mxGeometry>
        </mxCell>
        <mxCell id="yGpnjCPyToKT_gnSNX1e-56" value="&lt;font style=&quot;font-size: 18px;&quot;&gt;Nombre&lt;/font&gt;" style="ellipse;whiteSpace=wrap;html=1;" vertex="1" parent="1">
          <mxGeometry x="680" y="730" width="120" height="80" as="geometry" />
        </mxCell>
        <mxCell id="yGpnjCPyToKT_gnSNX1e-57" value="&lt;font style=&quot;font-size: 18px;&quot;&gt;Email&lt;/font&gt;" style="ellipse;whiteSpace=wrap;html=1;" vertex="1" parent="1">
          <mxGeometry x="880" y="810" width="120" height="80" as="geometry" />
        </mxCell>
        <mxCell id="yGpnjCPyToKT_gnSNX1e-58" value="&lt;font style=&quot;font-size: 18px;&quot;&gt;Direccion&lt;/font&gt;" style="ellipse;whiteSpace=wrap;html=1;" vertex="1" parent="1">
          <mxGeometry x="1040" y="730" width="120" height="80" as="geometry" />
        </mxCell>
        <mxCell id="yGpnjCPyToKT_gnSNX1e-59" value="&lt;u&gt;&lt;font style=&quot;font-size: 20px;&quot;&gt;Id&lt;/font&gt;&lt;/u&gt;" style="ellipse;whiteSpace=wrap;html=1;" vertex="1" parent="1">
          <mxGeometry x="1121" y="-40" width="120" height="80" as="geometry" />
        </mxCell>
        <mxCell id="yGpnjCPyToKT_gnSNX1e-60" value="" style="endArrow=none;html=1;rounded=0;exitX=1;exitY=0;exitDx=0;exitDy=0;entryX=0.225;entryY=0.957;entryDx=0;entryDy=0;entryPerimeter=0;" edge="1" parent="1" source="yGpnjCPyToKT_gnSNX1e-29" target="yGpnjCPyToKT_gnSNX1e-59">
          <mxGeometry width="50" height="50" relative="1" as="geometry">
            <mxPoint x="990" y="50" as="sourcePoint" />
            <mxPoint x="1040" as="targetPoint" />
          </mxGeometry>
        </mxCell>
        <mxCell id="yGpnjCPyToKT_gnSNX1e-61" value="&lt;span style=&quot;font-size: 15px;&quot;&gt;&lt;u style=&quot;font-size: 20px;&quot;&gt;Id&lt;/u&gt;&lt;/span&gt;" style="ellipse;whiteSpace=wrap;html=1;" vertex="1" parent="1">
          <mxGeometry x="1160" y="630" width="120" height="80" as="geometry" />
        </mxCell>
        <mxCell id="yGpnjCPyToKT_gnSNX1e-62" value="" style="endArrow=none;html=1;rounded=0;exitX=1;exitY=0;exitDx=0;exitDy=0;" edge="1" parent="1" source="yGpnjCPyToKT_gnSNX1e-56">
          <mxGeometry width="50" height="50" relative="1" as="geometry">
            <mxPoint x="820" y="750" as="sourcePoint" />
            <mxPoint x="870" y="700" as="targetPoint" />
          </mxGeometry>
        </mxCell>
        <mxCell id="yGpnjCPyToKT_gnSNX1e-63" value="" style="endArrow=none;html=1;rounded=0;exitX=0.5;exitY=0;exitDx=0;exitDy=0;" edge="1" parent="1" source="yGpnjCPyToKT_gnSNX1e-57">
          <mxGeometry width="50" height="50" relative="1" as="geometry">
            <mxPoint x="890" y="750" as="sourcePoint" />
            <mxPoint x="940" y="700" as="targetPoint" />
          </mxGeometry>
        </mxCell>
        <mxCell id="yGpnjCPyToKT_gnSNX1e-64" value="" style="endArrow=none;html=1;rounded=0;exitX=1;exitY=1;exitDx=0;exitDy=0;entryX=0;entryY=0;entryDx=0;entryDy=0;" edge="1" parent="1" source="yGpnjCPyToKT_gnSNX1e-52" target="yGpnjCPyToKT_gnSNX1e-58">
          <mxGeometry width="50" height="50" relative="1" as="geometry">
            <mxPoint x="1010" y="730" as="sourcePoint" />
            <mxPoint x="1060" y="680" as="targetPoint" />
          </mxGeometry>
        </mxCell>
        <mxCell id="yGpnjCPyToKT_gnSNX1e-65" value="" style="endArrow=none;html=1;rounded=0;entryX=0;entryY=0.5;entryDx=0;entryDy=0;exitX=1;exitY=0.5;exitDx=0;exitDy=0;" edge="1" parent="1" source="yGpnjCPyToKT_gnSNX1e-52" target="yGpnjCPyToKT_gnSNX1e-61">
          <mxGeometry width="50" height="50" relative="1" as="geometry">
            <mxPoint x="1040" y="660" as="sourcePoint" />
            <mxPoint x="1090" y="610" as="targetPoint" />
          </mxGeometry>
        </mxCell>
        <mxCell id="yGpnjCPyToKT_gnSNX1e-66" value="&lt;font style=&quot;font-size: 18px;&quot;&gt;&lt;font style=&quot;font-size: 18px;&quot;&gt;N&lt;/font&gt;:1&lt;/font&gt;" style="text;html=1;align=center;verticalAlign=middle;whiteSpace=wrap;rounded=0;" vertex="1" parent="1">
          <mxGeometry x="630" y="70" width="60" height="30" as="geometry" />
        </mxCell>
        <mxCell id="yGpnjCPyToKT_gnSNX1e-67" value="&lt;font style=&quot;font-size: 18px;&quot;&gt;N-N&lt;/font&gt;" style="text;html=1;align=center;verticalAlign=middle;whiteSpace=wrap;rounded=0;" vertex="1" parent="1">
          <mxGeometry x="820" y="415" width="60" height="30" as="geometry" />
        </mxCell>
        <mxCell id="yGpnjCPyToKT_gnSNX1e-68" value="&lt;u&gt;&lt;font style=&quot;font-size: 20px;&quot;&gt;Id&lt;/font&gt;&lt;/u&gt;" style="ellipse;whiteSpace=wrap;html=1;" vertex="1" parent="1">
          <mxGeometry x="120" y="-100" width="120" height="80" as="geometry" />
        </mxCell>
        <mxCell id="yGpnjCPyToKT_gnSNX1e-69" value="" style="endArrow=none;html=1;rounded=0;entryX=0.157;entryY=0.007;entryDx=0;entryDy=0;entryPerimeter=0;exitX=1;exitY=1;exitDx=0;exitDy=0;" edge="1" parent="1" source="yGpnjCPyToKT_gnSNX1e-68" target="yGpnjCPyToKT_gnSNX1e-32">
          <mxGeometry width="50" height="50" relative="1" as="geometry">
            <mxPoint x="270" as="sourcePoint" />
            <mxPoint x="320" y="-50" as="targetPoint" />
          </mxGeometry>
        </mxCell>
        <mxCell id="yGpnjCPyToKT_gnSNX1e-70" value="&lt;font style=&quot;font-size: 18px;&quot;&gt;Imagen&lt;/font&gt;&lt;div style=&quot;font-size: 18px;&quot;&gt;&lt;br&gt;&lt;/div&gt;" style="ellipse;whiteSpace=wrap;html=1;" vertex="1" parent="1">
          <mxGeometry x="130" y="350" width="120" height="80" as="geometry" />
        </mxCell>
        <mxCell id="yGpnjCPyToKT_gnSNX1e-71" value="" style="endArrow=none;html=1;rounded=0;entryX=0.25;entryY=1;entryDx=0;entryDy=0;exitX=1;exitY=0;exitDx=0;exitDy=0;" edge="1" parent="1" source="yGpnjCPyToKT_gnSNX1e-70" target="yGpnjCPyToKT_gnSNX1e-32">
          <mxGeometry width="50" height="50" relative="1" as="geometry">
            <mxPoint x="240" y="360" as="sourcePoint" />
            <mxPoint x="290" y="310" as="targetPoint" />
          </mxGeometry>
        </mxCell>
        <mxCell id="yGpnjCPyToKT_gnSNX1e-72" value="&lt;font style=&quot;font-size: 18px;&quot;&gt;Imagen&lt;/font&gt;&lt;div style=&quot;font-size: 18px;&quot;&gt;&lt;br&gt;&lt;/div&gt;" style="ellipse;whiteSpace=wrap;html=1;" vertex="1" parent="1">
          <mxGeometry x="1001" y="-150" width="120" height="80" as="geometry" />
        </mxCell>
        <mxCell id="yGpnjCPyToKT_gnSNX1e-73" value="" style="endArrow=none;html=1;rounded=0;exitX=0.5;exitY=0;exitDx=0;exitDy=0;entryX=0.5;entryY=1;entryDx=0;entryDy=0;" edge="1" parent="1" source="yGpnjCPyToKT_gnSNX1e-29" target="yGpnjCPyToKT_gnSNX1e-72">
          <mxGeometry width="50" height="50" relative="1" as="geometry">
            <mxPoint x="900" y="20" as="sourcePoint" />
            <mxPoint x="950" y="-30" as="targetPoint" />
          </mxGeometry>
        </mxCell>
        <mxCell id="yGpnjCPyToKT_gnSNX1e-74" value="&lt;font style=&quot;font-size: 18px;&quot;&gt;Imagen&lt;/font&gt;&lt;div style=&quot;font-size: 18px;&quot;&gt;&lt;br&gt;&lt;/div&gt;" style="ellipse;whiteSpace=wrap;html=1;" vertex="1" parent="1">
          <mxGeometry x="610" y="620" width="120" height="80" as="geometry" />
        </mxCell>
        <mxCell id="yGpnjCPyToKT_gnSNX1e-75" value="" style="endArrow=none;html=1;rounded=0;entryX=0;entryY=0.5;entryDx=0;entryDy=0;exitX=1;exitY=0.5;exitDx=0;exitDy=0;" edge="1" parent="1" source="yGpnjCPyToKT_gnSNX1e-74" target="yGpnjCPyToKT_gnSNX1e-52">
          <mxGeometry width="50" height="50" relative="1" as="geometry">
            <mxPoint x="750" y="670" as="sourcePoint" />
            <mxPoint x="800" y="620" as="targetPoint" />
          </mxGeometry>
        </mxCell>
        <mxCell id="yGpnjCPyToKT_gnSNX1e-76" value="&lt;font style=&quot;font-size: 20px;&quot;&gt;Ventas&lt;/font&gt;" style="rounded=0;whiteSpace=wrap;html=1;" vertex="1" parent="1">
          <mxGeometry x="1690" y="400" width="120" height="60" as="geometry" />
        </mxCell>
        <mxCell id="yGpnjCPyToKT_gnSNX1e-77" value="" style="endArrow=none;html=1;rounded=0;entryX=0;entryY=0.5;entryDx=0;entryDy=0;exitX=1;exitY=0.5;exitDx=0;exitDy=0;" edge="1" parent="1" source="yGpnjCPyToKT_gnSNX1e-50" target="yGpnjCPyToKT_gnSNX1e-76">
          <mxGeometry width="50" height="50" relative="1" as="geometry">
            <mxPoint x="1370" y="420" as="sourcePoint" />
            <mxPoint x="1420" y="370" as="targetPoint" />
            <Array as="points" />
          </mxGeometry>
        </mxCell>
        <mxCell id="yGpnjCPyToKT_gnSNX1e-78" value="&lt;u&gt;&lt;font style=&quot;font-size: 20px;&quot;&gt;Id&amp;nbsp;&lt;/font&gt;&lt;/u&gt;" style="ellipse;whiteSpace=wrap;html=1;" vertex="1" parent="1">
          <mxGeometry x="1850" y="100" width="120" height="80" as="geometry" />
        </mxCell>
        <mxCell id="yGpnjCPyToKT_gnSNX1e-79" value="&lt;font style=&quot;font-size: 18px;&quot;&gt;Id producto&lt;/font&gt;" style="ellipse;whiteSpace=wrap;html=1;" vertex="1" parent="1">
          <mxGeometry x="1930" y="365" width="120" height="80" as="geometry" />
        </mxCell>
        <mxCell id="yGpnjCPyToKT_gnSNX1e-80" value="&lt;font style=&quot;font-size: 18px;&quot;&gt;Id cliente&lt;/font&gt;" style="ellipse;whiteSpace=wrap;html=1;" vertex="1" parent="1">
          <mxGeometry x="1910" y="230" width="120" height="80" as="geometry" />
        </mxCell>
        <mxCell id="yGpnjCPyToKT_gnSNX1e-81" value="&lt;font style=&quot;font-size: 18px;&quot;&gt;Fecha&lt;/font&gt;" style="ellipse;whiteSpace=wrap;html=1;" vertex="1" parent="1">
          <mxGeometry x="1910" y="505" width="120" height="80" as="geometry" />
        </mxCell>
        <mxCell id="yGpnjCPyToKT_gnSNX1e-83" value="" style="endArrow=none;html=1;rounded=0;exitX=1;exitY=0;exitDx=0;exitDy=0;entryX=0;entryY=1;entryDx=0;entryDy=0;" edge="1" parent="1" source="yGpnjCPyToKT_gnSNX1e-76" target="yGpnjCPyToKT_gnSNX1e-78">
          <mxGeometry width="50" height="50" relative="1" as="geometry">
            <mxPoint x="1800" y="260" as="sourcePoint" />
            <mxPoint x="1850" y="210" as="targetPoint" />
          </mxGeometry>
        </mxCell>
        <mxCell id="yGpnjCPyToKT_gnSNX1e-84" value="" style="endArrow=none;html=1;rounded=0;entryX=0;entryY=1;entryDx=0;entryDy=0;exitX=1;exitY=0.25;exitDx=0;exitDy=0;" edge="1" parent="1" source="yGpnjCPyToKT_gnSNX1e-76" target="yGpnjCPyToKT_gnSNX1e-80">
          <mxGeometry width="50" height="50" relative="1" as="geometry">
            <mxPoint x="1850" y="380" as="sourcePoint" />
            <mxPoint x="1900" y="330" as="targetPoint" />
          </mxGeometry>
        </mxCell>
        <mxCell id="yGpnjCPyToKT_gnSNX1e-85" value="" style="endArrow=none;html=1;rounded=0;entryX=0;entryY=0.5;entryDx=0;entryDy=0;exitX=1;exitY=0.5;exitDx=0;exitDy=0;" edge="1" parent="1" source="yGpnjCPyToKT_gnSNX1e-76" target="yGpnjCPyToKT_gnSNX1e-79">
          <mxGeometry width="50" height="50" relative="1" as="geometry">
            <mxPoint x="1860" y="440" as="sourcePoint" />
            <mxPoint x="1910" y="390" as="targetPoint" />
          </mxGeometry>
        </mxCell>
        <mxCell id="yGpnjCPyToKT_gnSNX1e-86" value="" style="endArrow=none;html=1;rounded=0;entryX=0.038;entryY=0.371;entryDx=0;entryDy=0;entryPerimeter=0;exitX=1;exitY=0.75;exitDx=0;exitDy=0;" edge="1" parent="1" source="yGpnjCPyToKT_gnSNX1e-76" target="yGpnjCPyToKT_gnSNX1e-81">
          <mxGeometry width="50" height="50" relative="1" as="geometry">
            <mxPoint x="1840" y="510" as="sourcePoint" />
            <mxPoint x="1890" y="460" as="targetPoint" />
          </mxGeometry>
        </mxCell>
        <mxCell id="yGpnjCPyToKT_gnSNX1e-91" value="&lt;font style=&quot;font-size: 18px;&quot;&gt;Proveedor&lt;/font&gt;" style="ellipse;whiteSpace=wrap;html=1;" vertex="1" parent="1">
          <mxGeometry x="950" y="300" width="120" height="80" as="geometry" />
        </mxCell>
        <mxCell id="yGpnjCPyToKT_gnSNX1e-92" value="" style="endArrow=none;html=1;rounded=0;exitX=0.5;exitY=0;exitDx=0;exitDy=0;entryX=0.75;entryY=1;entryDx=0;entryDy=0;" edge="1" parent="1" source="yGpnjCPyToKT_gnSNX1e-91" target="yGpnjCPyToKT_gnSNX1e-29">
          <mxGeometry width="50" height="50" relative="1" as="geometry">
            <mxPoint x="940" y="250" as="sourcePoint" />
            <mxPoint x="990" y="200" as="targetPoint" />
          </mxGeometry>
        </mxCell>
      </root>
    </mxGraphModel>
  </diagram>
</mxfile>
